<svg width="71" height="71" viewBox="0 0 71 71" fill="none" xmlns="http://www.w3.org/2000/svg">
<g clip-path="url(#clip0_247_23)">
<path d="M7.38681 30.153C7.35776 30.1811 7.32899 30.209 7.30023 30.2391C7.14648 30.3996 6.99564 30.591 6.85007 30.8115C6.268 31.693 5.84663 33.0133 5.80459 34.4993C5.76249 35.9852 6.10862 37.3273 6.64007 38.2405C7.17138 39.1535 7.81043 39.5839 8.43 39.6014C8.97255 39.6168 9.54975 39.3176 10.076 38.6506C9.57821 38.3826 9.1738 37.9457 8.88797 37.4513C8.42618 36.6523 8.19643 35.6531 8.22687 34.5743C8.25725 33.4954 8.54119 32.5131 9.04735 31.7415C9.17411 31.5486 9.32183 31.3644 9.48381 31.1989C9.72424 30.9536 10.0028 30.7497 10.3101 30.6071C9.82126 29.905 9.2616 29.5715 8.7163 29.5561C8.28075 29.5436 7.82243 29.7329 7.38681 30.153ZM10.8506 32.4056C10.8266 32.4274 10.802 32.4528 10.7773 32.4791C10.7117 32.5491 10.6451 32.635 10.5755 32.741C10.2971 33.1653 10.0734 33.8507 10.0516 34.6259C10.0297 35.4013 10.2141 36.0982 10.4681 36.5375C10.722 36.9767 10.9681 37.1021 11.1449 37.1072L11.1923 37.1085L11.2417 37.1164L17.6137 37.981C17.3089 37.0295 17.1592 35.9579 17.191 34.8279C17.2232 33.698 17.4331 32.6365 17.7913 31.7038L11.3809 32.2067L11.3311 32.2119L11.2836 32.2106C11.1676 32.2073 11.0182 32.2528 10.8506 32.4056ZM20.6114 30.6178C20.5538 30.6695 20.4983 30.7233 20.4448 30.7793C20.2986 30.9329 20.1538 31.1168 20.0148 31.3286C19.4588 32.1756 19.0568 33.4488 19.0163 34.8796C18.9758 36.3104 19.3052 37.6042 19.8125 38.4813C20.3196 39.3584 20.9257 39.7628 21.5093 39.7793L21.5588 39.7828L21.6061 39.7885L22.1825 39.8653C22.1719 39.8475 22.1599 39.8305 22.1495 39.8125C21.3792 38.489 20.9684 36.7722 21.021 34.9038C21.0735 33.0446 21.577 31.3618 22.4139 30.0862L21.8815 30.1271L21.8319 30.1279L21.7823 30.1287C21.3992 30.1178 20.9993 30.2709 20.6113 30.6179L20.6114 30.6178ZM24.5458 30.3471C24.3397 30.5405 24.1389 30.7818 23.9469 31.0726C23.3322 32.0034 22.8902 33.3931 22.8462 34.9553C22.802 36.5178 23.1645 37.93 23.7256 38.8941C24.1814 39.6775 24.7173 40.1307 25.2601 40.2825L25.2771 40.2873L32.7311 41.2971C31.9481 39.5846 31.5369 37.4891 31.6007 35.2356C31.6646 32.9811 32.1949 30.9115 33.0739 29.2455L25.2893 29.8586C25.0396 29.958 24.7884 30.1193 24.5457 30.3471L24.5458 30.3471ZM35.9732 28.3281C35.9242 28.3753 35.875 28.4245 35.8267 28.475C35.5686 28.7442 35.3231 29.0582 35.0876 29.4169C34.1461 30.8516 33.4877 32.9448 33.4214 35.2869C33.355 37.6288 33.8941 39.756 34.7531 41.2418C35.6124 42.7277 36.7167 43.5165 37.8659 43.549L37.9132 43.5505L37.9627 43.5583L38.0119 43.5664C37.793 43.2758 37.5918 42.9724 37.4095 42.6577C36.2793 40.7152 35.6567 38.1509 35.7358 35.3546C35.8149 32.5584 36.5813 30.0333 37.8197 28.1579C38.0241 27.8479 38.2434 27.5542 38.4768 27.2807L38.4228 27.2856L38.3729 27.2905L38.3254 27.2892C37.5175 27.2664 36.709 27.6184 35.9732 28.328L35.9732 28.3281ZM40.3491 27.951C39.9955 28.2806 39.6565 28.6861 39.3412 29.1636C38.3319 30.6921 37.631 32.9158 37.5606 35.4062C37.4901 37.8967 38.0642 40.1564 38.9854 41.7393C39.6724 42.9199 40.5121 43.6933 41.4099 44.0249L50.0226 45.1947C49.8416 44.9377 49.6699 44.671 49.5077 44.3924C48.1466 42.0535 47.3929 38.9461 47.4887 35.5553C47.5847 32.1648 48.513 29.1091 50.004 26.8511C50.1175 26.6791 50.2359 26.5124 50.3571 26.3495L41.9084 27.0106L41.9061 27.0129C41.3691 27.1743 40.844 27.4893 40.3489 27.9509L40.3491 27.951ZM52.7306 26.395C52.6637 26.4589 52.5964 26.5241 52.5306 26.5921C52.1797 26.9554 51.8432 27.3771 51.5277 27.8549C50.2658 29.7659 49.3988 32.5243 49.3116 35.609C49.2242 38.6939 49.9341 41.497 51.0858 43.4762C52.2375 45.4557 53.7573 46.5549 55.3689 46.6003C56.4541 46.6312 57.5252 46.1813 58.4949 45.3007C58.4057 45.3037 58.3164 45.304 58.2271 45.3017C56.3702 45.249 54.8128 43.9955 53.7952 42.2469C52.7777 40.4981 52.2237 38.2013 52.2946 35.6956C52.3655 33.1899 53.0485 30.9237 54.1633 29.2354C54.4421 28.8133 54.7519 28.4242 55.0899 28.0785C56.1039 27.0416 57.3659 26.3987 58.7587 26.4381C58.8508 26.4405 58.9428 26.446 59.0346 26.4544C58.1159 25.5171 57.0698 25.0065 55.9827 24.9757C54.8498 24.9436 53.7329 25.4356 52.7306 26.3949L52.7306 26.395ZM56.5188 29.2265C56.473 29.2705 56.4287 29.316 56.3834 29.363C56.1416 29.6139 55.9064 29.9061 55.685 30.2413C54.7994 31.5825 54.1797 33.5452 54.1176 35.745C54.087 36.8248 54.1943 37.8542 54.4071 38.7884C54.3914 38.5266 54.3873 38.2643 54.3948 38.0022C54.4613 35.6538 55.4267 33.6734 56.7302 32.9065C56.4985 33.497 56.3529 34.1854 56.332 34.9247C56.2687 37.1598 57.3415 39.0031 58.7283 39.0424C59.796 39.0724 60.7424 38.0241 61.1484 36.5203C61.2369 37.0504 61.2751 37.6138 61.2587 38.1963C61.1863 40.7518 60.0518 42.8732 58.5729 43.4677C59.5374 43.3772 60.4956 42.713 61.2991 41.4961C62.1847 40.1548 62.8044 38.1922 62.8666 35.9923C62.929 33.7925 62.4212 31.7979 61.6129 30.4086C60.8044 29.0196 59.772 28.2907 58.7096 28.2606C57.9626 28.2396 57.208 28.5654 56.5191 29.2262L56.5188 29.2265Z" fill="#0B4AE6"/>
</g>
<defs>
<clipPath id="clip0_247_23">
<rect width="50" height="50" fill="white" transform="translate(0 34.3416) rotate(-43.3797)"/>
</clipPath>
</defs>
</svg>
